<svg version="1.2" xmlns="http://www.w3.org/2000/svg" viewBox="0 0 1080 1080" width="1080" height="1080">
	<title>New Project</title>
	<style>
		.s0 { fill: #bd5858 } 
	</style>
	<path id="&lt;Compound Path&gt;" fill-rule="evenodd" class="s0" d="m553.9 114.3c-4.7 7.6-11.9 13.2-16.7 20.8-35.6 55.9-44.1 151.6 20.8 190 62.3 37 120.7-35.2 83.4-91-15.5-23.2-43.3-35.6-68.9-19.1-33.9 22-7 71.1 28.2 49.4 3 2.9-11.9 7.5-13.6 7.7-37.8 3.7-47.8-44-16.8-64.7 54-36 111.8 35.1 94.5 91.2-14.7 48.1-63 70.2-109.8 51.8 1 2.2 4.1 3.2 6.2 4.2 34.5 16.7 78.7 16 106.4-12.9 1.8 1.1-0.3 2.4-1.1 3.2-27.3 32.7-78.2 33.1-114.7 17.5 33.7 35 82.9 58.1 114.7 94.6 49 56.2 17.4 119.9-29.3 164.3l-12.6 9.7c11.3-11.5 22.1-23.3 31.6-36.4l-4.4-1.1c24-16.3 22.6-49.9 13.9-74.8-8.1-23.1-24.7-40.4-42.1-56.8l-26.2-19c42.2 40 52.4 99.5 32.1 153.3-12.2 32.4-40.7 68.6-18.4 103.3l13.5 19.7c-11.1-9.5-23.7-21.8-28.8-36-17.7-49.5 35.1-96 3.6-151.5-15.5-27.4-56.9-43.1-87.3-43.2-30.5-0.2-74 18.6-96.1-11.6-11.5-15.6-3.8-21.4 0.6-36 3.6-12-3.5-8.5-9-14.3-8-8.4-3.3-20.3 7.1-23.5-6.3-4.3-13.9-6.7-11.8-16.1 2-8.5 15.2-6 12.6-21.7-2.8-17.3-37.8-23.3-21.5-40.5 13.4-14.3 42.6-25.8 49.5-46.3 5.2-15.6-13.8-20-22.3-29.8l13.1 7-9.8-14.1c5.6 6.1 11.9 13.1 19 17.4 1 0.6 0.8 1.8 2.2 0 10.8-64.4 48.6-117.5 108.2-144.7zm126.2 418.3c0.7 7.5-0.5 15.8 0 23.4 1.7-1 2.4-5.4 3-7.4 12.5-44.6-3.8-74.2-37.3-102.5l-86.4-62.5c5.9 7 13.5 13.5 20.6 19.6 41 34.7 94.6 69.8 100.1 129.4z"/>
	<path id="&lt;Compound Path&gt;" fill-rule="evenodd" class="s0" d="m540 64q80.5 0 141.3 34.2 60.9 34.2 95.1 95.8 34.2 61.6 34.2 143.5 0 82-34.2 143.6-34.2 61.6-95.1 95.8-60.8 34.2-141.3 34.2-79.6 0-140.5-34.2-60.9-34.2-95-95.8-34.2-61.6-34.2-143.6 0-81.9 34.2-143.5 34.1-61.6 95-95.8 60.9-34.2 140.5-34.2zm0 524.5q63.9 0 111.6-31.5 47.8-31.6 74.4-87.9 26.7-56.4 26.7-131.6 0-75.1-26.7-131.5-26.6-56.3-74.4-87.9-47.7-31.6-111.6-31.6-63.1 0-110.8 31.6-47.7 31.6-74.4 87.9-26.7 56.4-26.7 131.5 0 75.2 26.7 131.6 26.7 56.3 74.4 87.9 47.7 31.5 110.8 31.5z"/>
	<path id="&lt;Compound Path&gt;" fill-rule="evenodd" class="s0" d="m266.4 788q33.5 0 58.8 14.3 25.4 14.2 39.6 39.9 14.3 25.6 14.3 59.8 0 34.1-14.3 59.7-14.2 25.7-39.6 40-25.3 14.2-58.8 14.2-33.2 0-58.6-14.2-25.3-14.3-39.6-40-14.2-25.6-14.2-59.7 0-34.2 14.2-59.8 14.3-25.7 39.6-39.9 25.4-14.3 58.6-14.3zm0 218.5q26.6 0 46.5-13.1 19.8-13.2 30.9-36.7 11.2-23.4 11.2-54.7 0-31.3-11.2-54.8-11.1-23.5-30.9-36.6-19.9-13.2-46.5-13.2-26.3 0-46.2 13.2-19.9 13.1-31 36.6-11.1 23.5-11.1 54.8 0 31.3 11.1 54.7 11.1 23.5 31 36.7 19.9 13.1 46.2 13.1z"/>
	<path id="&lt;Compound Path&gt;" fill-rule="evenodd" class="s0" d="m424.9 801.3q-5.8-5.8-13.9-5.8h-4.1v-3.1h84.5q14.1 0 25.5 4.1 11.5 4 19.3 11.7 7.8 7.7 12 18.5 4.3 10.8 4.3 24.5 0 15.1-7.1 28.8-7 13.8-19.1 22.4-12 8.6-27 8.6 5.3 2.2 11.5 9 6.3 6.7 11 12.9 8.4 12.3 14.9 21 6.4 8.8 13 17.2 6.5 8.5 11.2 13.5 6.3 6.9 12.5 12.2 6.3 5.3 13.7 8.5 7.3 3.1 16.4 3.1v3.1h-17.2q-14.4 0-24.9-4.4-10.5-4.3-17.7-10.8-7.2-6.4-12.2-12.3-0.9-1.3-5.2-7.2-4.2-6-10-14.3-5.8-8.3-11.4-16.4-5.6-8.1-9.7-13.9-4.1-5.8-4.7-6.8-6-7.8-13.2-14.4-7.2-6.5-15.6-6.5v-3.2q9.7 0.3 16.6 0 8.1-0.3 17.8-2.5 9.7-2.2 18.2-9.1 8.4-6.8 12.8-20.9 1-3.5 1.6-8.6 0.6-5.2 0.3-10.2-0.3-21.3-10.8-34-10.5-12.6-28-13.6-8.8-0.6-18-0.5-8.9 0.2-20.8 0.2v186.6h-1v22.8h-43.5v-3.1h4.1q8.1 0 13.9-5.8 5.8-5.8 6.1-13.9v-173.4q-0.3-8.2-6.1-14zm50.3 210.2v-3.1h-3.8q-8.1 0-14.1-5.8-5.9-5.8-5.9-13.9v22.8z"/>
	<path id="&lt;Compound Path&gt;" class="s0" d="m634.5 815.3h-1q0-8.2-5.9-14-6-5.8-14.1-5.8h-3.7l-0.4-3.1h25.1zm0 173.4v22.9h-25.1v-3.2h4.1q8.1 0 13.9-5.8 5.8-5.7 6.1-13.9zm19.5-196.2v219.1h-20.4v-219.1zm84.5 0v9.7h-85.4v-9.7zm-13.5 106.4v9.4h-72v-9.4zm-72 89.8h1q0.3 8.2 6.1 13.9 5.7 5.8 13.9 5.8 3.7 0 4.1 0v3.2h-25.1zm85.5-201.9v9l-38.2-3.4q6.9 0 14.5-0.9 7.7-1 14.3-2.2 6.6-1.3 9.4-2.5zm-13.5 92v20.7h-18.1v-0.7q6.2-0.3 10.6-4.8 4.4-4.6 4.4-10.8v-4.4zm0 28.8v20.7h-3.1v-4.7q0-6.3-4.4-10.8-4.4-4.6-10.7-4.6v-0.6zm13.5-106.4v20.9h-3.1v-4.7q0-6.2-4.6-10.8-4.5-4.5-10.8-4.5v-0.9z"/>
	<path id="&lt;Compound Path&gt;" class="s0" d="m803.8 815.3h-0.9q0-8.2-6-14-5.9-5.8-14-5.8h-3.8l-0.3-3.1h25zm0 173.4v22.9h-25v-3.2h4.1q8.1 0 13.9-5.8 5.8-5.7 6.1-13.9zm19.4-196.2v219.1h-20.4v-219.1zm84.6 0v9.7h-85.5v-9.7zm-13.5 106.4v9.4h-71.9v-9.4zm13.4 103v9.7h-85.4v-9.7zm19.1-41l-18.2 50.7h-52l11.3-9.7q16.6 0 27.1-5.2 10.5-5.2 17-14.6 6.6-9.3 11.6-21.2zm-19.1-174.1v9.1l-38.2-3.4q6.9 0 14.6-1 7.7-0.9 14.2-2.2 6.6-1.2 9.4-2.5zm-13.4 92v20.7h-18.2v-0.6q6.3-0.3 10.7-4.9 4.3-4.5 4.3-10.8v-4.4zm0 28.8v20.7h-3.1v-4.7q0-6.3-4.4-10.8-4.4-4.5-10.6-4.5v-0.7zm13.4-106.4v25.1h-3.1v-5.7q0-7.5-5.3-13-5.3-5.4-13.2-5.8v-0.6z"/>
</svg>